HIERARCHY
ROOT joint_Root
{
	OFFSET 0.0 0.0 0.0
	CHANNELS 6 Xposition Yposition Zposition Zrotation Xrotation Yrotation 
	JOINT Hips
	{
		OFFSET -17.1583 93.1646 452.98
		CHANNELS 6 Xposition Yposition Zposition Zrotation Xrotation Yrotation 
		JOINT Spine
		{
			OFFSET 15.7357 0.0 0.0
			CHANNELS 6 Xposition Yposition Zposition Zrotation Xrotation Yrotation 
			JOINT Chest
			{
				OFFSET 8.98455 -0.406207 0.0
				CHANNELS 6 Xposition Yposition Zposition Zrotation Xrotation Yrotation 
				JOINT Neck
				{
					OFFSET 16.3773 0.0 0.0
					CHANNELS 6 Xposition Yposition Zposition Zrotation Xrotation Yrotation 
					JOINT Head
					{
						OFFSET 6.45672 0.0 0.0
						CHANNELS 6 Xposition Yposition Zposition Zrotation Xrotation Yrotation 
						End Site
						{
							OFFSET 0.0 0.0 0.0
						}
					}
				}
				JOINT Shoulder_L
				{
					OFFSET 12.9942 -0.242716 4.98039
					CHANNELS 6 Xposition Yposition Zposition Zrotation Xrotation Yrotation 
					JOINT UpperArm_L
					{
						OFFSET 5.34809 0.0 0.0
						CHANNELS 6 Xposition Yposition Zposition Zrotation Xrotation Yrotation 
						JOINT LowerArm_L
						{
							OFFSET 24.3286 1.87007e-05 0.0
							CHANNELS 6 Xposition Yposition Zposition Zrotation Xrotation Yrotation 
							JOINT Hand_L
							{
								OFFSET 22.2916 0.0 0.0
								CHANNELS 6 Xposition Yposition Zposition Zrotation Xrotation Yrotation 
								End Site
								{
									OFFSET 0.0 0.0 0.0
								}
							}
						}
					}
				}
				JOINT Shoulder_R
				{
					OFFSET 12.9945 -0.242716 -4.98039
					CHANNELS 6 Xposition Yposition Zposition Zrotation Xrotation Yrotation 
					JOINT UpperArm_R
					{
						OFFSET -5.34813 0.0 0.0
						CHANNELS 6 Xposition Yposition Zposition Zrotation Xrotation Yrotation 
						JOINT LowerArm_R
						{
							OFFSET -24.3289 0.000322201 0.0
							CHANNELS 6 Xposition Yposition Zposition Zrotation Xrotation Yrotation 
							JOINT Hand_R
							{
								OFFSET -22.2915 -0.000108084 0.0
								CHANNELS 6 Xposition Yposition Zposition Zrotation Xrotation Yrotation 
								End Site
								{
									OFFSET 0.0 0.0 0.0
								}
							}
						}
					}
				}
			}
		}
		JOINT UpperLeg_L
		{
			OFFSET -2.19248 -6.46944 0.0
			CHANNELS 6 Xposition Yposition Zposition Zrotation Xrotation Yrotation 
			JOINT LowerLeg_L
			{
				OFFSET 39.0811 0.0 -1.23785e-05
				CHANNELS 6 Xposition Yposition Zposition Zrotation Xrotation Yrotation 
				JOINT Foot_L
				{
					OFFSET 40.9854 0.0 -1.26872e-05
					CHANNELS 6 Xposition Yposition Zposition Zrotation Xrotation Yrotation 
					JOINT Toes_L
					{
						OFFSET 11.7543 0.0 0.0
						CHANNELS 6 Xposition Yposition Zposition Zrotation Xrotation Yrotation 
						End Site
						{
							OFFSET 0.0 0.0 0.0
						}
					}
				}
			}
		}
		JOINT UpperLeg_R
		{
			OFFSET -2.19251 6.46944 0.0
			CHANNELS 6 Xposition Yposition Zposition Zrotation Xrotation Yrotation 
			JOINT LowerLeg_R
			{
				OFFSET -39.0811 -0.00228153 -0.0401928
				CHANNELS 6 Xposition Yposition Zposition Zrotation Xrotation Yrotation 
				JOINT Foot_R
				{
					OFFSET -40.9854 0.0 0.0
					CHANNELS 6 Xposition Yposition Zposition Zrotation Xrotation Yrotation 
					JOINT Toes_R
					{
						OFFSET -11.7543 0.0 0.0
						CHANNELS 6 Xposition Yposition Zposition Zrotation Xrotation Yrotation 
						End Site
						{
							OFFSET 0.0 0.0 0.0
						}
					}
				}
			}
		}
	}
}
MOTION
Frames:	5
Frame Time:	0.0333333
0.000000 0.000000 0.000000 0.000000 0.000000 -0.000000 -0.212036 93.189800 -2.243440 86.592000 -3.764430 -0.938001 15.735700 0.000005 -0.000001 87.775100 87.529700 -85.603300 8.984550 -0.406207 -0.000000 -2.818090 -0.392207 4.334190 16.377300 -0.000001 -0.000001 3.095640 3.782050 0.101722 6.456720 -0.000001 -0.000000 2.564750 5.677690 -5.219990 12.994200 -0.242716 4.980390 -92.568500 7.731280 -71.559000 5.348090 -0.000007 -0.000001 -73.472500 14.589800 2.032930 24.328600 0.000019 0.000005 14.518300 26.212400 -30.381900 22.291600 -0.000001 0.000005 -1.621930 5.021940 6.849450 12.994500 -0.242716 -4.980390 88.860600 3.567760 -72.275500 -5.348130 -0.000001 -0.000004 -70.097500 5.692850 -4.378270 -24.328900 0.000322 -0.000009 1.869760 4.756200 -21.496200 -22.291500 -0.000108 -0.000004 5.414010 5.199750 2.726960 -2.192480 -6.469440 -0.000000 -176.662000 -1.047850 -5.214260 39.081100 -0.000007 -0.000012 0.185541 -0.533802 19.167000 40.985400 -0.000006 -0.000013 2.283870 6.363940 -70.283500 11.754300 -0.000000 0.000003 0.000260 0.163123 -9.960850 -2.192510 6.469440 -0.000001 -175.166000 5.461360 179.249000 -39.081100 -0.002282 -0.040193 0.018248 -0.073809 11.421900 -40.985400 0.000008 0.000006 -1.690440 2.899600 -66.882800 -11.754300 -0.000006 -0.000006 -0.009136 0.264730 -5.819830
0.000000 0.000000 0.000000 0.000000 0.000000 -0.000000 -0.315180 93.188000 -2.317630 86.600100 -3.658830 -0.967688 15.735700 0.000005 -0.000001 87.195800 87.450600 -84.997100 8.984550 -0.406207 -0.000000 -2.660990 -0.449305 4.387020 16.377300 -0.000001 -0.000001 2.867670 3.581360 0.441539 6.456720 -0.000001 -0.000000 1.730550 5.592020 -4.791360 12.994200 -0.242716 4.980390 -92.627300 7.863180 -71.457700 5.348090 -0.000007 -0.000001 -73.126800 11.898700 2.214310 24.328600 0.000019 0.000005 15.369200 25.818800 -32.257000 22.291600 -0.000001 0.000005 -1.251610 5.008530 7.137030 12.994500 -0.242716 -4.980390 88.856800 3.543040 -72.104000 -5.348130 -0.000001 -0.000004 -69.669100 3.075440 -4.006690 -24.328900 0.000322 -0.000009 2.672100 5.720720 -25.090800 -22.291500 -0.000108 -0.000004 4.778330 5.159090 3.727490 -2.192480 -6.469440 -0.000000 -176.583000 -0.966931 -5.355260 39.081100 -0.000007 -0.000012 0.185116 -0.530511 19.236200 40.985400 -0.000006 -0.000013 2.207960 6.419410 -70.206400 11.754300 -0.000000 0.000003 0.000357 0.161386 -10.031400 -2.192510 6.469440 -0.000001 -175.055000 5.451640 179.173000 -39.081100 -0.002282 -0.040193 0.019726 -0.081171 11.415400 -40.985400 0.000008 0.000006 -1.448820 2.735270 -66.877800 -11.754300 -0.000006 -0.000006 -0.009001 0.263680 -5.862730
0.000000 0.000000 0.000000 0.000000 0.000000 -0.000000 -0.439088 93.194900 -2.398230 86.600500 -3.509210 -0.964249 15.735700 0.000005 -0.000001 86.750800 87.369200 -84.532600 8.984550 -0.406207 -0.000000 -2.499350 -0.496725 4.425440 16.377300 -0.000001 -0.000001 2.663040 3.363850 0.855651 6.456720 -0.000001 -0.000000 0.772636 5.484120 -4.250990 12.994200 -0.242716 4.980390 -92.680500 7.973510 -71.350100 5.348090 -0.000007 -0.000001 -72.714700 8.510920 2.885890 24.328600 0.000019 0.000005 16.868000 24.598000 -36.071700 22.291600 -0.000001 0.000005 -0.803865 4.974120 7.862910 12.994500 -0.242716 -4.980390 88.846000 3.538480 -71.923700 -5.348130 -0.000001 -0.000004 -69.293600 -0.126540 -3.339140 -24.328900 0.000322 -0.000009 3.868530 6.787480 -29.776600 -22.291500 -0.000108 -0.000004 4.331400 5.130120 4.414790 -2.192480 -6.469440 -0.000000 -176.487000 -0.916381 -5.423450 39.081100 -0.000007 -0.000012 0.185907 -0.532203 19.255500 40.985400 -0.000006 -0.000013 2.128940 6.522490 -70.220700 11.754300 -0.000000 0.000003 0.000255 0.163221 -9.956880 -2.192510 6.469440 -0.000001 -174.943000 5.518290 179.162000 -39.081100 -0.002282 -0.040193 0.019966 -0.082944 11.336700 -40.985400 0.000008 0.000006 -1.329700 2.633340 -66.854100 -11.754300 -0.000006 -0.000006 -0.009329 0.266220 -5.758930
0.000000 0.000000 0.000000 0.000000 0.000000 -0.000000 -0.573620 93.187500 -2.435240 86.616200 -3.387650 -0.925347 15.735700 0.000005 -0.000001 86.261800 87.267900 -84.047000 8.984550 -0.406207 -0.000000 -2.299080 -0.550561 4.418280 16.377300 -0.000001 -0.000001 2.506560 3.116940 1.321510 6.456720 -0.000001 -0.000000 -0.306336 5.363940 -3.454130 12.994200 -0.242716 4.980390 -92.724000 7.984390 -71.092400 5.348090 -0.000007 -0.000001 -72.276000 5.064800 3.861340 24.328600 0.000019 0.000005 19.223900 22.901100 -41.862300 22.291600 -0.000001 0.000005 0.229400 4.936290 8.644360 12.994500 -0.242716 -4.980390 88.825900 3.573580 -71.798700 -5.348130 -0.000001 -0.000004 -68.977300 -3.496800 -2.624600 -24.328900 0.000322 -0.000009 5.012520 7.152010 -35.166200 -22.291500 -0.000108 -0.000004 4.710550 5.105650 4.982640 -2.192480 -6.469440 -0.000000 -176.401000 -0.795612 -5.462090 39.081100 -0.000007 -0.000012 0.186220 -0.530806 19.332500 40.985400 -0.000006 -0.000013 2.036900 6.555580 -70.222600 11.754300 -0.000000 0.000003 0.000287 0.162645 -9.980270 -2.192510 6.469440 -0.000001 -174.834000 5.627810 179.198000 -39.081100 -0.002282 -0.040193 0.021654 -0.091553 11.314100 -40.985400 0.000008 0.000006 -1.022740 2.561590 -66.888900 -11.754300 -0.000006 -0.000006 -0.009215 0.265339 -5.794940
0.000000 0.000000 0.000000 0.000000 0.000000 -0.000000 -0.731284 93.186000 -2.522560 86.575600 -3.350510 -0.951897 15.735700 0.000005 -0.000001 86.831800 87.220100 -84.605400 8.984550 -0.406207 -0.000000 -2.201070 -0.500728 4.442670 16.377300 -0.000001 -0.000001 2.541350 2.831560 1.903700 6.456720 -0.000001 -0.000000 -1.419130 5.112130 -2.623710 12.994200 -0.242716 4.980390 -92.736800 7.909390 -70.843700 5.348090 -0.000007 -0.000001 -71.825900 2.075160 4.912210 24.328600 0.000019 0.000005 22.475500 21.141400 -48.915500 22.291600 -0.000001 0.000005 1.320320 4.906850 9.238790 12.994500 -0.242716 -4.980390 88.822700 3.542150 -71.601300 -5.348130 -0.000001 -0.000004 -68.703800 -6.564850 -2.054500 -24.328900 0.000322 -0.000009 6.006230 7.029040 -40.690900 -22.291500 -0.000108 -0.000004 5.832870 5.090160 5.336850 -2.192480 -6.469440 -0.000000 -176.246000 -0.717470 -5.605540 39.081100 -0.000007 -0.000012 0.188012 -0.532446 19.448900 40.985400 -0.000006 -0.000013 1.909190 6.521750 -70.247900 11.754300 -0.000000 0.000003 0.000325 0.161968 -10.007700 -2.192510 6.469440 -0.000001 -174.661000 5.650460 179.151000 -39.081100 -0.002282 -0.040193 0.022027 -0.093920 11.254800 -40.985400 0.000008 0.000006 -0.843211 2.539770 -66.853300 -11.754300 -0.000006 -0.000006 -0.009071 0.264226 -5.840420
